<?xml version="1.0" encoding="iso-8859-1"?>
<!-- Uploaded to: SVG Repo, www.svgrepo.com, Generator: SVG Repo Mixer Tools -->
<!DOCTYPE svg PUBLIC "-//W3C//DTD SVG 1.1//EN" "http://www.w3.org/Graphics/SVG/1.1/DTD/svg11.dtd">
<svg fill="#000000" height="800px" width="800px" version="1.1" id="Capa_1" xmlns="http://www.w3.org/2000/svg" xmlns:xlink="http://www.w3.org/1999/xlink" 
	 viewBox="0 0 425.47 425.47" xml:space="preserve">
<g>
	<path d="M423.492,233.259c-2.578-2.496-6.693-2.432-9.191,0.147l-48.898,50.49c-1.229-4.144-3.502-7.925-6.692-11.013
		c-4.887-4.733-11.337-7.289-18.126-7.17c-5.288,0.084-10.3,1.773-14.495,4.813c-1.196-4.315-3.519-8.253-6.82-11.45
		c-0.27-0.262-0.547-0.514-0.826-0.762v-54.417c11.645,11.021,27.343,17.801,44.604,17.801c3.59,0,6.5-2.91,6.5-6.5
		s-2.91-6.5-6.5-6.5c-28.649,0-51.957-23.308-51.957-51.957v-22.095c0-3.59-2.91-6.5-6.5-6.5h-47.52
		c-8.944,0-16.221-7.277-16.221-16.221s7.277-16.221,16.221-16.221h44.959c17.692,0,35.342,4.313,51.04,12.471
		c25.914,13.467,45.164,36.177,54.205,63.946l1.754,5.386c1.112,3.414,4.782,5.282,8.193,4.168c3.414-1.112,5.279-4.78,4.168-8.193
		l-1.754-5.385c-10.103-31.031-31.614-56.408-60.571-71.457c-17.542-9.117-37.265-13.936-57.035-13.936h-44.959
		c-15.918,0-28.894,12.795-29.206,28.639H6.5c-3.59,0-6.5,2.91-6.5,6.5v147.74c0,3.59,2.91,6.5,6.5,6.5h165.691
		c-0.204,1.376-0.304,2.778-0.281,4.197c0.109,6.802,2.86,13.155,7.748,17.888v0c4.786,4.636,11.06,7.174,17.707,7.174
		c0.14,0,0.28-0.001,0.419-0.003c5.294-0.085,10.312-1.777,14.51-4.824c1.169,4.223,3.436,8.199,6.805,11.461
		c4.787,4.636,11.06,7.174,17.708,7.174c0.139,0,0.28-0.001,0.419-0.003c5.294-0.085,10.313-1.777,14.511-4.824
		c1.169,4.223,3.435,8.199,6.804,11.461c4.787,4.636,11.06,7.174,17.708,7.174c0.139,0,0.28-0.001,0.419-0.003
		c5.294-0.085,10.313-1.777,14.51-4.824c1.169,4.223,3.436,8.199,6.805,11.462c4.786,4.635,11.06,7.173,17.707,7.173
		c0.14,0,0.28-0.001,0.419-0.003c6.802-0.109,13.155-2.861,17.888-7.748l89.645-92.564
		C426.137,239.872,426.071,235.757,423.492,233.259z M305.444,186.707v65.5c-1.41-0.216-2.846-0.322-4.3-0.301
		c-5.294,0.085-10.312,1.777-14.51,4.824c-0.501-1.809-1.201-3.573-2.106-5.254h3.327c3.59,0,6.5-2.91,6.5-6.5V141.147h3.737v15.595
		C298.091,167.547,300.757,177.735,305.444,186.707z M198.138,238.476H37.091v-93.523h244.263v93.523h-35.853
		c-1.256-2.548-2.958-4.929-5.113-7.016c-10.089-9.77-26.244-9.51-36.015,0.578L198.138,238.476z M13,259.084v-134.74h217.628
		c1.325,2.81,3.086,5.374,5.193,7.608H30.591c-3.59,0-6.5,2.91-6.5,6.5v106.523c0,3.59,2.91,6.5,6.5,6.5h154.957l-6.469,6.679
		c-0.294,0.304-0.58,0.614-0.857,0.929H13z M197.575,288.341c-3.325,0.052-6.481-1.194-8.874-3.51v0
		c-2.393-2.317-3.74-5.427-3.793-8.757c-0.054-3.33,1.193-6.481,3.51-8.874l25.293-26.117c2.442-2.521,5.699-3.789,8.959-3.789
		c3.125,0,6.255,1.165,8.672,3.506c4.938,4.784,5.065,12.693,0.283,17.632l-25.294,26.118
		C204.016,286.94,200.906,288.287,197.575,288.341z M237.017,302.148c-3.301,0.059-6.482-1.193-8.875-3.511
		c-4.939-4.783-5.065-12.692-0.283-17.631l25.294-26.118c2.442-2.521,5.698-3.789,8.959-3.789c3.126,0,6.255,1.165,8.673,3.506
		c4.939,4.783,5.065,12.692,0.283,17.631l-25.294,26.118C243.457,300.748,240.347,302.095,237.017,302.148z M276.458,315.956
		c-3.32,0.064-6.482-1.193-8.875-3.511c-4.939-4.783-5.065-12.692-0.283-17.631l25.294-26.118c2.317-2.393,5.427-3.74,8.757-3.793
		c0.069-0.001,0.137-0.002,0.206-0.002c3.254,0,6.326,1.243,8.669,3.513c2.393,2.317,3.74,5.427,3.793,8.757
		c0.054,3.33-1.193,6.481-3.51,8.874l-25.294,26.118C282.898,314.556,279.788,315.903,276.458,315.956z M324.656,325.971
		c-2.317,2.393-5.427,3.74-8.757,3.793c-3.329,0.063-6.481-1.193-8.874-3.51c-2.393-2.317-3.74-5.427-3.793-8.757
		s1.193-6.481,3.51-8.874l25.294-26.118c2.317-2.393,5.427-3.739,8.757-3.793c3.314-0.048,6.481,1.193,8.874,3.511
		c2.393,2.317,3.74,5.427,3.793,8.757c0.053,3.331-1.193,6.482-3.511,8.875L324.656,325.971z"/>
	<path d="M159.223,149.54c-20.443,0-37.074,18.922-37.074,42.18s16.631,42.18,37.074,42.18s37.074-18.922,37.074-42.18
		S179.666,149.54,159.223,149.54z M159.223,220.9c-13.274,0-24.074-13.09-24.074-29.18s10.8-29.18,24.074-29.18
		s24.074,13.09,24.074,29.18S172.498,220.9,159.223,220.9z"/>
</g>
</svg>