<?xml version="1.0" encoding="utf-8"?>
<!-- Generator: Adobe Illustrator 19.2.1, SVG Export Plug-In . SVG Version: 6.00 Build 0)  -->
<svg version="1.1" id="layer" xmlns="http://www.w3.org/2000/svg" xmlns:xlink="http://www.w3.org/1999/xlink" x="0px" y="0px"
	 viewBox="0 0 652 652" style="enable-background:new 0 0 652 652;" xml:space="preserve">
<style type="text/css">
	.st0{fill:#9855FC;}
	.st1{fill:#211547;}
</style>
<path id="Fill-1" class="st0" d="M26.7,258.3c-2.4,0-4.4,1.9-4.4,4.4V372c0,2.4,2,4.4,4.4,4.4h68.4c2.4,0,4.4-1.9,4.4-4.4V262.6
	c0-2.4-2-4.4-4.4-4.4H26.7z M95.1,380.7H26.7c-4.8,0-8.7-3.9-8.7-8.7V262.6c0-4.8,3.9-8.7,8.7-8.7h68.4c4.8,0,8.7,3.9,8.7,8.7V372
	C103.9,376.8,99.9,380.7,95.1,380.7z"/>
<path id="Fill-3" class="st0" d="M34.4,347.5h27.9c0.6,0,1.2,0.3,1.6,0.7l12.1,13v-11.5c0-1.2,1-2.2,2.2-2.2h9.3v-69.6H34.4V347.5z
	 M78.1,368.9c-0.6,0-1.2-0.3-1.6-0.7l-15.2-16.4H32.2c-1.2,0-2.2-1-2.2-2.2v-74c0-1.2,1-2.2,2.2-2.2h57.4c1.2,0,2.2,1,2.2,2.2v74
	c0,1.2-1,2.2-2.2,2.2h-9.3v14.9c0,0.9-0.5,1.7-1.4,2C78.7,368.8,78.4,368.9,78.1,368.9z"/>
<path id="Fill-5" class="st0" d="M69.9,267.8h-18c-1.2,0-2.2-1-2.2-2.2s1-2.2,2.2-2.2h18c1.2,0,2.2,1,2.2,2.2S71.1,267.8,69.9,267.8
	"/>
<path class="st1" d="M148.5,313.7h-3c-0.9,0-1.6-0.8-1.6-1.6v-5.8c0-1,0.7-1.6,1.6-1.6h3v-9.7c0-0.9,0.8-1.6,1.6-1.6l7.2-0.1
	c0.9,0,1.6,0.8,1.6,1.6v9.7h7.7c1,0,1.6,0.7,1.6,1.6v5.8c0,0.9-0.7,1.6-1.6,1.6h-7.7v13.9c0,2.5,1.3,2.8,2.7,2.8
	c1.5,0,3.3-0.6,4.3-1c1-0.4,1.6,0.1,1.9,1l1.8,5.5c0.4,0.9-0.1,1.8-1,2.1c-0.4,0.3-6.1,2.3-10.4,2.3c-6.7,0-9.7-4.2-9.7-11.2V313.7z
	 M176.9,280.1c0-0.9,0.8-1.6,1.6-1.6h7.4c0.9,0,1.6,0.8,1.6,1.6v26.5c1.8-1.3,5.2-2.9,9.3-2.9c11.1,0,15.7,8.5,15.7,17.3v16.7
	c0,0.9-0.8,1.6-1.6,1.6h-7.1c-1,0-1.6-0.8-1.6-1.6v-16.8c0-4.8-2.7-7.8-6.9-7.8c-4,0-6.7,2.6-7.6,6.2v18.5c0,1-0.5,1.6-1.8,1.6h-7.2
	c-0.9,0-1.6-0.8-1.6-1.6V280.1z M243.8,317.6c-0.3-3.2-3.1-5.9-6.4-5.9c-3.5,0-6.4,2.6-6.8,5.9H243.8z M237.6,303.7
	c9,0,16.4,6.8,16.4,16.2c0,0.6-0.1,1.8-0.2,2.3c-0.1,0.9-0.9,1.5-1.6,1.5h-22.4c0.3,3.6,3.3,7.6,8.4,7.6c2.7,0,5.3-1.1,6.8-2.2
	c0.9-0.5,1.6-0.7,2.3,0l3.6,4.1c0.6,0.6,0.8,1.6-0.1,2.3c-2.9,2.7-7.4,4.8-13,4.8c-10.5,0-17.9-8.3-17.9-18.3
	C219.8,312.1,227.2,303.7,237.6,303.7z M276.6,330.8c4.6,0,8.4-4,8.4-9c0-4.9-3.8-8.8-8.4-8.8c-4.7,0-8.4,3.9-8.4,8.8
	C268.2,326.9,271.9,330.8,276.6,330.8 M276.6,303.7c9.9,0,17.9,8.3,17.9,18.2c0,10-8.1,18.4-17.9,18.4s-17.9-8.3-17.9-18.4
	C258.6,312,266.7,303.7,276.6,303.7 M302.3,306.2c0-1,0.8-1.6,1.6-1.6h3.3c0.8,0,1.3,0.4,1.6,1.1l1.2,3.4c1.2-1.8,4.5-5.4,9.9-5.4
	c4.1,0,7.8,1.3,6.7,3.5l-3.2,5.7c-0.4,0.8-1.3,1.1-2,0.8c-0.3-0.1-1.6-0.5-2.5-0.5c-3.5,0-5.6,2.3-6.2,3.6v21c0,1.2-0.8,1.6-2,1.6
	H304c-0.9,0-1.6-0.8-1.6-1.6V306.2z M353.3,317.6c-0.3-3.2-3.1-5.9-6.4-5.9c-3.5,0-6.4,2.6-6.8,5.9H353.3z M347.2,303.7
	c9,0,16.4,6.8,16.4,16.2c0,0.6-0.1,1.8-0.2,2.3c-0.1,0.9-0.9,1.5-1.6,1.5h-22.4c0.3,3.6,3.3,7.6,8.4,7.6c2.7,0,5.2-1.1,6.8-2.2
	c0.9-0.5,1.6-0.7,2.3,0l3.6,4.1c0.6,0.6,0.8,1.6-0.1,2.3c-2.9,2.7-7.4,4.8-13,4.8c-10.5,0-17.9-8.3-17.9-18.3
	C329.3,312.1,336.7,303.7,347.2,303.7z M370.9,306.2c0-1,0.8-1.6,1.6-1.6h3.2c0.8,0,1.3,0.4,1.5,1l1.2,3.3c1.5-1.6,5.5-5.1,11.7-5.1
	c5,0,8.5,1.9,11.4,5.4c1.5-1.6,6-5.4,12.3-5.4c11.2,0,15.3,8.3,15.3,17.4v16.6c0,0.9-0.7,1.6-1.6,1.6h-7.1c-1,0-1.6-0.8-1.6-1.6
	v-17.2c0-4.5-2.2-7.4-6.6-7.4c-5.1,0-7.4,3.7-7.4,3.7s0.1,1.8,0.1,3.3v17.7c0,0.9-0.8,1.6-1.6,1.6h-6.6c-1,0-1.6-0.8-1.6-1.6v-17.2
	c0-4.5-2-7.4-6.5-7.4c-4.4,0-6.5,3.1-7.4,5.5v19.1c0,0.9-0.8,1.6-1.6,1.6h-7.1c-0.9,0-1.6-0.8-1.6-1.6
	C370.9,337.7,370.9,306.2,370.9,306.2z"/>
<path class="st0" d="M439.1,306.2c0-1,0.8-1.6,1.6-1.6h3.3c0.8,0,1.3,0.4,1.6,1.1l1.2,3.4c1.2-1.8,4.5-5.4,9.9-5.4
	c4.1,0,7.8,1.3,6.7,3.5l-3.2,5.7c-0.4,0.8-1.3,1.1-2,0.8c-0.3-0.1-1.6-0.5-2.5-0.5c-3.5,0-5.6,2.3-6.2,3.6v21c0,1.2-0.8,1.6-2,1.6
	h-6.7c-0.9,0-1.6-0.8-1.6-1.6V306.2z M490,317.6c-0.3-3.2-3.1-5.9-6.4-5.9c-3.5,0-6.4,2.6-6.8,5.9H490z M483.9,303.7
	c9,0,16.4,6.8,16.4,16.2c0,0.6-0.1,1.8-0.2,2.3c-0.1,0.9-0.9,1.5-1.6,1.5H476c0.3,3.6,3.3,7.6,8.4,7.6c2.7,0,5.2-1.1,6.8-2.2
	c0.9-0.5,1.6-0.7,2.3,0l3.6,4.1c0.6,0.6,0.8,1.6-0.1,2.3c-2.9,2.7-7.4,4.8-13,4.8c-10.5,0-17.9-8.3-17.9-18.3
	C466,312.1,473.5,303.7,483.9,303.7z M519.3,332.9c2.8,0,5.5-2.3,6-3.4v-4.8c0,0-2.4-1.1-4.9-1.1c-3.4,0-5.7,1.9-5.7,4.7
	C514.7,330.9,516.5,332.9,519.3,332.9 M519.1,317.3c3.5,0,6.4,1,6.4,1c0.1-4.4-1.3-6-4.5-6s-7.8,0.7-9.8,1.3c-1.2,0.4-1.8-0.4-2-1.6
	l-0.8-4.5c-0.3-1.3,0.4-1.9,1.2-2.2c0.7-0.3,6.3-1.6,11.9-1.6c10.9,0,13.5,5.7,13.5,15.2v18.9c0,0.9-0.8,1.6-1.6,1.6h-3.1
	c-0.6,0-1.1-0.3-1.5-1.2l-1.1-2.3c-2,1.8-5.2,4.4-10.7,4.4c-7,0-11.8-4.5-11.8-11.9C505.1,322.1,510.2,317.3,519.1,317.3 M561,303.7
	c5.4,0,9.6,2.2,13,6.2c0.6,0.8,0.4,1.8-0.4,2.5l-4,3.8c-0.8,0.7-1.6,0.3-2.2-0.3c-1.4-1.6-3.6-2.8-6-2.8c-4.7,0-8.6,4-8.6,8.9
	c0,5,3.8,8.9,8.5,8.9c3.8,0,5.4-1.8,7-3.3c0.6-0.6,1.5-0.8,2.2-0.3l3.8,3.2c0.9,0.7,1.2,1.6,0.6,2.5c-3,4.6-7.6,7.3-13.8,7.3
	c-9.9,0-18.6-7.8-18.6-18.3C542.3,311.7,551.1,303.7,561,303.7 M582.3,280.1c0-0.9,0.8-1.6,1.6-1.6h7.4c0.9,0,1.6,0.8,1.6,1.6v26.5
	c1.8-1.3,5.2-2.9,9.3-2.9c11.1,0,15.7,8.5,15.7,17.3v16.7c0,0.9-0.8,1.6-1.6,1.6h-7.1c-1,0-1.6-0.8-1.6-1.6v-16.8
	c0-4.8-2.7-7.8-6.9-7.8c-4,0-6.7,2.6-7.6,6.2v18.5c0,1-0.5,1.6-1.8,1.6h-7.2c-0.9,0-1.6-0.8-1.6-1.6V280.1z"/>
</svg>
